<svg xmlns="http://www.w3.org/2000/svg" xmlns:xlink="http://www.w3.org/1999/xlink" viewBox="35.9 54.4 482.20000000000005 198.2" width="482.20000000000005" height="198.2">
<polygon points="0,0 0,340 558,340 558,0" fill="#ffffff00" stroke="none" />
<path d="M 48.500,181.000 C 50.966,180.241 51.000,180.500 53.500,180.000" stroke-width="12.600" stroke="#000000" fill="none" stroke-linecap="round"></path><path d="M 53.500,180.000 C 61.494,179.320 61.466,179.241 69.500,179.000" stroke-width="12.600" stroke="#000000" fill="none" stroke-linecap="round"></path><path d="M 69.500,179.000 C 74.000,179.000 73.994,178.820 78.500,179.000" stroke-width="12.600" stroke="#000000" fill="none" stroke-linecap="round"></path><path d="M 78.500,179.000 C 100.500,179.000 100.500,179.000 122.500,179.000" stroke-width="12.600" stroke="#000000" fill="none" stroke-linecap="round"></path><path d="M 122.500,179.000 C 135.000,179.000 135.000,179.000 147.500,179.000" stroke-width="12.600" stroke="#000000" fill="none" stroke-linecap="round"></path><path d="M 147.500,179.000 C 162.000,179.000 162.000,179.000 176.500,179.000" stroke-width="12.600" stroke="#000000" fill="none" stroke-linecap="round"></path><path d="M 176.500,179.000 C 184.000,179.000 184.000,179.000 191.500,179.000" stroke-width="12.600" stroke="#000000" fill="none" stroke-linecap="round"></path><path d="M 191.500,179.000 C 198.781,177.281 196.000,179.000 200.500,179.000" stroke-width="12.600" stroke="#000000" fill="none" stroke-linecap="round"></path><path d="M 200.500,179.000 C 199.936,182.796 201.781,180.281 197.500,185.000" stroke-width="12.600" stroke="#000000" fill="none" stroke-linecap="round"></path><path d="M 197.500,185.000 C 188.492,191.489 189.436,192.296 179.500,198.000" stroke-width="12.600" stroke="#000000" fill="none" stroke-linecap="round"></path><path d="M 179.500,198.000 C 174.071,202.100 173.992,201.989 168.500,206.000" stroke-width="12.600" stroke="#000000" fill="none" stroke-linecap="round"></path><path d="M 168.500,206.000 C 159.392,213.166 159.071,212.600 149.500,219.000" stroke-width="12.600" stroke="#000000" fill="none" stroke-linecap="round"></path><path d="M 149.500,219.000 C 139.500,224.000 139.892,224.666 129.500,229.000" stroke-width="12.600" stroke="#000000" fill="none" stroke-linecap="round"></path><path d="M 129.500,229.000 C 122.652,232.853 122.500,232.500 115.500,236.000" stroke-width="12.600" stroke="#000000" fill="none" stroke-linecap="round"></path><path d="M 115.500,236.000 C 106.401,241.358 110.152,238.353 104.500,240.000" stroke-width="12.600" stroke="#000000" fill="none" stroke-linecap="round"></path><path d="M 104.500,240.000 C 105.840,235.128 102.901,238.858 108.500,231.000" stroke-width="12.600" stroke="#000000" fill="none" stroke-linecap="round"></path><path d="M 108.500,231.000 C 121.348,213.228 120.340,212.628 133.500,195.000" stroke-width="12.600" stroke="#000000" fill="none" stroke-linecap="round"></path><path d="M 133.500,195.000 C 140.079,184.548 140.348,184.728 146.500,174.000" stroke-width="12.600" stroke="#000000" fill="none" stroke-linecap="round"></path><path d="M 146.500,174.000 C 154.032,161.519 154.079,161.548 161.500,149.000" stroke-width="12.600" stroke="#000000" fill="none" stroke-linecap="round"></path><path d="M 161.500,149.000 C 170.982,132.990 171.032,133.019 180.500,117.000" stroke-width="12.600" stroke="#000000" fill="none" stroke-linecap="round"></path><path d="M 180.500,117.000 C 183.177,111.786 183.482,111.990 186.500,107.000" stroke-width="12.600" stroke="#000000" fill="none" stroke-linecap="round"></path><path d="M 186.500,107.000 C 195.644,93.718 195.677,93.786 205.500,81.000" stroke-width="12.600" stroke="#000000" fill="none" stroke-linecap="round"></path><path d="M 205.500,81.000 C 213.385,65.790 211.144,73.718 217.500,67.000" stroke-width="12.600" stroke="#000000" fill="none" stroke-linecap="round"></path><path d="M 217.500,67.000 C 220.045,76.488 221.885,68.290 222.500,86.000" stroke-width="12.600" stroke="#000000" fill="none" stroke-linecap="round"></path><path d="M 222.500,86.000 C 224.526,91.915 224.045,91.988 225.500,98.000" stroke-width="12.600" stroke="#000000" fill="none" stroke-linecap="round"></path><path d="M 225.500,98.000 C 226.000,104.500 226.526,104.415 226.500,111.000" stroke-width="12.600" stroke="#000000" fill="none" stroke-linecap="round"></path><path d="M 226.500,111.000 C 227.417,124.007 227.500,124.000 228.500,137.000" stroke-width="12.600" stroke="#000000" fill="none" stroke-linecap="round"></path><path d="M 228.500,137.000 C 228.573,148.162 229.417,148.007 230.500,159.000" stroke-width="12.600" stroke="#000000" fill="none" stroke-linecap="round"></path><path d="M 230.500,159.000 C 233.239,170.586 232.573,170.662 236.500,182.000" stroke-width="12.600" stroke="#000000" fill="none" stroke-linecap="round"></path><path d="M 236.500,182.000 C 237.421,184.534 237.239,184.586 238.500,187.000" stroke-width="12.600" stroke="#000000" fill="none" stroke-linecap="round"></path><path d="M 238.500,187.000 C 240.097,193.179 240.921,192.534 243.500,198.000" stroke-width="12.600" stroke="#000000" fill="none" stroke-linecap="round"></path><path d="M 243.500,198.000 C 247.091,200.901 246.097,201.679 250.500,204.000" stroke-width="12.600" stroke="#000000" fill="none" stroke-linecap="round"></path><path d="M 250.500,204.000 C 252.133,206.685 252.591,205.901 254.500,208.000" stroke-width="12.600" stroke="#000000" fill="none" stroke-linecap="round"></path><path d="M 254.500,208.000 C 257.000,209.000 256.633,209.185 259.500,209.000" stroke-width="12.600" stroke="#000000" fill="none" stroke-linecap="round"></path><path d="M 259.500,209.000 C 262.116,208.883 262.000,209.000 264.500,208.000" stroke-width="12.600" stroke="#000000" fill="none" stroke-linecap="round"></path><path d="M 264.500,208.000 C 275.633,203.794 275.616,203.883 286.500,199.000" stroke-width="12.600" stroke="#000000" fill="none" stroke-linecap="round"></path><path d="M 286.500,199.000 C 292.230,195.299 292.633,196.294 298.500,193.000" stroke-width="12.600" stroke="#000000" fill="none" stroke-linecap="round"></path><path d="M 298.500,193.000 C 307.481,190.428 307.230,189.799 316.500,188.000" stroke-width="12.600" stroke="#000000" fill="none" stroke-linecap="round"></path><path d="M 316.500,188.000 C 320.436,186.650 320.481,186.928 324.500,186.000" stroke-width="12.600" stroke="#000000" fill="none" stroke-linecap="round"></path><path d="M 324.500,186.000 C 333.290,183.343 332.936,184.650 341.500,184.000" stroke-width="12.600" stroke="#000000" fill="none" stroke-linecap="round"></path><path d="M 341.500,184.000 C 346.171,185.276 345.790,184.343 349.500,188.000" stroke-width="12.600" stroke="#000000" fill="none" stroke-linecap="round"></path><path d="M 349.500,188.000 C 350.715,190.704 351.671,189.776 352.500,193.000" stroke-width="12.600" stroke="#000000" fill="none" stroke-linecap="round"></path><path d="M 352.500,193.000 C 357.521,200.021 357.715,199.704 363.500,206.000" stroke-width="12.600" stroke="#000000" fill="none" stroke-linecap="round"></path><path d="M 363.500,206.000 C 366.578,209.396 366.521,209.021 370.500,211.000" stroke-width="12.600" stroke="#000000" fill="none" stroke-linecap="round"></path><path d="M 370.500,211.000 C 377.870,213.808 377.578,213.896 385.500,215.000" stroke-width="12.600" stroke="#000000" fill="none" stroke-linecap="round"></path><path d="M 385.500,215.000 C 393.994,215.630 393.870,216.308 402.500,216.000" stroke-width="12.600" stroke="#000000" fill="none" stroke-linecap="round"></path><path d="M 402.500,216.000 C 416.998,216.628 416.994,216.630 431.500,217.000" stroke-width="12.600" stroke="#000000" fill="none" stroke-linecap="round"></path><path d="M 431.500,217.000 C 436.501,216.918 436.498,217.128 441.500,217.000" stroke-width="12.600" stroke="#000000" fill="none" stroke-linecap="round"></path><path d="M 441.500,217.000 C 466.999,217.602 467.001,217.418 492.500,218.000" stroke-width="12.600" stroke="#000000" fill="none" stroke-linecap="round"></path><path d="M 492.500,218.000 C 499.000,218.000 498.999,218.102 505.500,218.000" stroke-width="12.600" stroke="#000000" fill="none" stroke-linecap="round"></path></svg>